Coordinates
version=1
nRows=65
nColumns=12
inDegrees=yes

Units are S.I. units (second, meters, Newtons, ...)
Angles are in degrees

endheader
time	SC_y	SC_z	SC_x	AC_y	AC_z	AC_x	GH_y	GH_z	GH_yy	EL_x	PS_y
       0.0              -43.51          37.42          71.15          40.78         -19.46          17.33          118.7          58.51         -81.15          90.38          116.9
     0.036              -43.51          37.42          71.15          40.78         -19.46          17.32          118.7           58.5         -81.12          90.37          116.9
   0.07201              -43.51          37.41          71.15          40.78         -19.46          17.32          118.7           58.5         -81.08          90.37          116.8
     0.108              -43.51          37.41          71.15          40.78         -19.45          17.32          118.7          58.49         -81.05          90.37          116.8
     0.144              -43.51          37.41          71.15          40.78         -19.45          17.31          118.7          58.49         -81.01          90.37          116.8
      0.18              -43.51          37.41          71.16          40.78         -19.44          17.31          118.7          58.48         -80.97          90.37          116.8
     0.216              -43.51           37.4          71.16          40.78         -19.44           17.3          118.7          58.48         -80.93          90.36          116.8
     0.252              -43.52           37.4          71.16          40.78         -19.43           17.3          118.7          58.47         -80.88          90.36          116.8
     0.288              -43.52           37.4          71.16          40.78         -19.43          17.29          118.7          58.46         -80.83          90.36          116.8
     0.324              -43.52          37.39          71.17          40.78         -19.42          17.28          118.7          58.46         -80.78          90.36          116.8
      0.36              -43.52          37.39          71.17          40.78         -19.42          17.28          118.7          58.45         -80.72          90.35          116.8
     0.396              -43.52          37.39          71.17          40.79         -19.41          17.27          118.7          58.44         -80.66          90.35          116.8
    0.4321              -43.52          37.38          71.18          40.79          -19.4          17.26          118.7          58.43          -80.6          90.35          116.7
    0.4681              -43.52          37.38          71.18          40.79         -19.39          17.25          118.7          58.42         -80.53          90.34          116.7
    0.5041              -43.53          37.37          71.18          40.79         -19.38          17.25          118.7          58.41         -80.45          90.34          116.7
    0.5401              -43.53          37.37          71.19          40.79         -19.37          17.24          118.7           58.4         -80.37          90.33          116.7
    0.5761              -43.53          37.36          71.19          40.79         -19.36          17.23          118.7          58.39         -80.28          90.33          116.7
    0.6121              -43.53          37.35           71.2           40.8         -19.35          17.21          118.7          58.37         -80.18          90.32          116.7
    0.6481              -43.53          37.35           71.2           40.8         -19.34           17.2          118.7          58.36         -80.07          90.32          116.6
    0.6841              -43.54          37.34          71.21           40.8         -19.33          17.19          118.7          58.34         -79.95          90.31          116.6
    0.7201              -43.54          37.33          71.22           40.8         -19.31          17.17          118.8          58.32         -79.82           90.3          116.6
    0.7561              -43.54          37.32          71.23          40.81          -19.3          17.16          118.8          58.31         -79.68          90.29          116.6
    0.7921              -43.55          37.31          71.23          40.81         -19.28          17.14          118.8          58.28         -79.52          90.29          116.5
    0.8281              -43.55           37.3          71.24          40.81         -19.26          17.12          118.8          58.26         -79.35          90.28          116.5
    0.8641              -43.55          37.29          71.25          40.82         -19.24           17.1          118.8          58.23         -79.16          90.27          116.4
    0.9001              -43.56          37.28          71.27          40.82         -19.21          17.07          118.8           58.2         -78.94          90.25          116.4
    0.9361              -43.56          37.26          71.28          40.83         -19.18          17.04          118.8          58.17          -78.7          90.24          116.4
    0.9721              -43.57          37.24          71.29          40.83         -19.15          17.01          118.8          58.13         -78.43          90.23          116.3
     1.008              -43.58          37.22          71.31          40.84         -19.12          16.97          118.9          58.09         -78.12          90.21          116.2
     1.044              -43.58           37.2          71.33          40.85         -19.08          16.93          118.9          58.04         -77.77          90.19          116.2
      1.08              -43.59          37.18          71.35          40.85         -19.03          16.89          118.9          57.99         -77.37          90.17          116.1
     1.116               -43.6          37.15          71.38          40.86         -18.98          16.83          118.9          57.92         -76.91          90.14          116.0
     1.152              -43.61          37.11          71.41          40.88         -18.92          16.77          119.0          57.85         -76.39          90.11          115.9
     1.188              -43.63          37.07          71.44          40.89         -18.85           16.7          119.0          57.76         -75.77          90.08          115.7
     1.224              -43.64          37.03          71.48           40.9         -18.76          16.62          119.0          57.66         -75.06          90.04          115.6
      1.26              -43.66          36.97          71.53          40.92         -18.67          16.52          119.1          57.55         -74.21          89.99          115.4
     1.296              -43.68          36.91          71.58          40.94         -18.55           16.4          119.2          57.41          -73.2          89.94          115.2
     1.332              -43.71          36.83          71.65          40.97         -18.41          16.26          119.2          57.24          -72.0          89.87          115.0
     1.368              -43.74          36.74          71.73           41.0         -18.24          16.09          119.3          57.04         -70.54          89.79          114.7
     1.404              -43.78          36.62          71.82          41.04         -18.04          15.89          119.4          56.79         -68.76          89.69          114.3
      1.44              -43.83          36.48          71.94          41.08         -17.79          15.63          119.6          56.49         -66.56          89.57          113.8
     1.476              -43.89          36.31          72.09          41.14         -17.47          15.31          119.7          56.11         -63.82          89.42          113.3
     1.512              -43.96          36.09          72.28          41.21         -17.07          14.91          119.9          55.63         -60.37          89.23          112.5
     1.548              -44.06          35.81          72.52           41.3         -16.57           14.4          120.2          55.02         -55.98          88.99          111.6
     1.584              -44.18          35.45          72.83          41.42         -15.92          13.75          120.5          54.24         -50.36          88.68          110.5
      1.62              -44.33          34.99          73.22          41.57         -15.09          12.91          121.0          53.24         -43.15          88.28          109.0
     1.656              -44.53           34.4          73.73          41.76         -14.03          11.84          121.5          51.96         -33.94          87.77          107.1
     1.692              -44.79          33.66          74.36          42.01          -12.7          10.49          122.2          50.36         -22.36          87.13          104.7
     1.728              -45.09          32.75          75.13           42.3         -11.08          8.855          123.1           48.4         -8.254          86.36          101.7
     1.764              -45.45          31.71          76.03          42.64         -9.196          6.953          124.1          46.13          8.103          85.45          98.34
       1.8              -45.83          30.57          76.99          43.02         -7.159          4.895          125.1          43.68          25.81          84.48          94.66
     1.836              -46.21          29.44          77.96          43.39         -5.121          2.837          126.2          41.22          43.52           83.5          90.99
     1.872              -46.57          28.39          78.86          43.73          -3.24         0.9354          127.2          38.96          59.88           82.6          87.59
     1.908              -46.88          27.49          79.63          44.02         -1.616        -0.7046          128.1           37.0          73.99          81.82          84.66
     1.944              -47.13          26.75          80.26          44.27        -0.2841         -2.051          128.8          35.39          85.57          81.18          82.26
      1.98              -47.33          26.16          80.76          44.46         0.7754         -3.121          129.3          34.12          94.78          80.68          80.35
     2.016              -47.48           25.7          81.16          44.61          1.605         -3.959          129.7          33.12          102.0          80.28          78.85
     2.052               -47.6          25.34          81.47          44.73          2.251         -4.612          130.1          32.34          107.6          79.97          77.69
     2.088               -47.7          25.06          81.71          44.82          2.756         -5.122          130.3          31.73          112.0          79.73          76.78
     2.124              -47.77          24.84          81.89          44.89          3.153         -5.523          130.6          31.25          115.4          79.54          76.06
      2.16              -47.83          24.66          82.04          44.95          3.469         -5.842          130.7          30.87          118.2          79.38          75.49
     2.196              -47.88          24.52          82.16           45.0          3.722         -6.097          130.9          30.57          120.4          79.26          75.03
     2.232              -47.92          24.41          82.26          45.03          3.926         -6.304          131.0          30.32          122.2          79.16          74.66
     2.268              -47.95          24.31          82.34          45.06          4.094         -6.474          131.1          30.12          123.6          79.08          74.36
     2.304              -47.98          24.24          82.41          45.09          4.233         -6.614          131.1          29.95          124.8          79.02          74.11
